<svg width="329" height="338" viewBox="0 0 329 338" fill="none" xmlns="http://www.w3.org/2000/svg">
<circle cx="16" cy="16" r="2" fill="white"/>
<circle cx="31" cy="16" r="2" fill="white"/>
<circle cx="46" cy="16" r="2" fill="white"/>
<circle cx="61" cy="16" r="2" fill="white"/>
<circle cx="76" cy="16" r="2" fill="white"/>
<circle cx="16" cy="31" r="2" fill="white"/>
<circle cx="31" cy="31" r="2" fill="white"/>
<circle cx="46" cy="31" r="2" fill="white"/>
<circle cx="61" cy="31" r="2" fill="white"/>
<circle cx="76" cy="31" r="2" fill="white"/>
<circle cx="16" cy="46" r="2" fill="white"/>
<circle cx="31" cy="46" r="2" fill="white"/>
<circle cx="46" cy="46" r="2" fill="white"/>
<circle cx="61" cy="46" r="2" fill="white"/>
<circle cx="76" cy="46" r="2" fill="white"/>
<circle cx="16" cy="61" r="2" fill="white"/>
<circle cx="31" cy="61" r="2" fill="white"/>
<circle cx="46" cy="61" r="2" fill="white"/>
<circle cx="61" cy="61" r="2" fill="white"/>
<circle cx="76" cy="61" r="2" fill="white"/>
<circle cx="16" cy="76" r="2" fill="white"/>
<circle cx="31" cy="76" r="2" fill="white"/>
<circle cx="46" cy="76" r="2" fill="white"/>
<circle cx="61" cy="76" r="2" fill="white"/>
<circle cx="76" cy="76" r="2" fill="white"/>
<circle cx="173" cy="154" r="2" fill="white"/>
<circle cx="188" cy="154" r="2" fill="white"/>
<circle cx="203" cy="154" r="2" fill="white"/>
<circle cx="218" cy="154" r="2" fill="white"/>
<circle cx="233" cy="154" r="2" fill="white"/>
<circle cx="173" cy="169" r="2" fill="white"/>
<circle cx="188" cy="169" r="2" fill="white"/>
<circle cx="203" cy="169" r="2" fill="white"/>
<circle cx="218" cy="169" r="2" fill="white"/>
<circle cx="233" cy="169" r="2" fill="white"/>
<circle cx="173" cy="184" r="2" fill="white"/>
<circle cx="188" cy="184" r="2" fill="white"/>
<circle cx="203" cy="184" r="2" fill="white"/>
<circle cx="218" cy="184" r="2" fill="white"/>
<circle cx="233" cy="184" r="2" fill="white"/>
<circle cx="173" cy="199" r="2" fill="white"/>
<circle cx="188" cy="199" r="2" fill="white"/>
<circle cx="203" cy="199" r="2" fill="white"/>
<circle cx="218" cy="199" r="2" fill="white"/>
<circle cx="233" cy="199" r="2" fill="white"/>
<circle cx="173" cy="214" r="2" fill="white"/>
<circle cx="188" cy="214" r="2" fill="white"/>
<circle cx="203" cy="214" r="2" fill="white"/>
<circle cx="218" cy="214" r="2" fill="white"/>
<circle cx="233" cy="214" r="2" fill="white"/>
<path d="M1 237.5H0.5V238V337V337.5H1H67H67.5V337V304.5H133H133.5V304V205V204.5H133H67H66.5V205V237.5H1ZM66.5 303.5H34.5V271.5H66.5V303.5ZM67.5 270.5V238.5H99.5V270.5H67.5Z" stroke="#8EDD78"/>
<path d="M235.5 0.5H310.5V75.5H235.5V0.5Z" stroke="white"/>
<path d="M273.5 205.5H328.5V260.5H273.5V205.5Z" stroke="white"/>
</svg>
